<?xml version="1.0" encoding="UTF-8" standalone="no"?>
<!-- Created with Inkscape (http://www.inkscape.org/) -->

<svg
   xmlns:dc="http://purl.org/dc/elements/1.1/"
   xmlns:cc="http://creativecommons.org/ns#"
   xmlns:rdf="http://www.w3.org/1999/02/22-rdf-syntax-ns#"
   xmlns:svg="http://www.w3.org/2000/svg"
   xmlns="http://www.w3.org/2000/svg"
   xmlns:xlink="http://www.w3.org/1999/xlink"
   xmlns:sodipodi="http://sodipodi.sourceforge.net/DTD/sodipodi-0.dtd"
   xmlns:inkscape="http://www.inkscape.org/namespaces/inkscape"
   width="210mm"
   height="297mm"
   viewBox="0 0 744.09448819 1052.3622047"
   id="svg2"
   version="1.1"
   inkscape:version="0.91 r"
   sodipodi:docname="LOGO.svg">
  <defs
     id="defs4" />
  <sodipodi:namedview
     id="base"
     pagecolor="#ffffff"
     bordercolor="#666666"
     borderopacity="1.0"
     inkscape:pageopacity="0.0"
     inkscape:pageshadow="2"
     inkscape:zoom="0.73"
     inkscape:cx="165.63075"
     inkscape:cy="532.07614"
     inkscape:document-units="px"
     inkscape:current-layer="layer1"
     showgrid="false"
     inkscape:window-width="1366"
     inkscape:window-height="716"
     inkscape:window-x="0"
     inkscape:window-y="0"
     inkscape:window-maximized="1" />
  <metadata
     id="metadata7">
    <rdf:RDF>
      <cc:Work
         rdf:about="">
        <dc:format>image/svg+xml</dc:format>
        <dc:type
           rdf:resource="http://purl.org/dc/dcmitype/StillImage" />
        <dc:title />
      </cc:Work>
    </rdf:RDF>
  </metadata>
  <g
     inkscape:label="Layer 1"
     inkscape:groupmode="layer"
     id="layer1">
    <ellipse
       style="fill:#2c3e50;fill-opacity:0.95121951;fill-rule:evenodd;stroke:#000000;stroke-width:1.0471791px;stroke-linecap:butt;stroke-linejoin:miter;stroke-opacity:1"
       id="path3336"
       cx="357.14288"
       cy="520.46399"
       rx="332.10535"
       ry="379.97641" />
    <text
       xml:space="preserve"
       style="font-style:normal;font-variant:normal;font-weight:normal;font-stretch:normal;font-size:143.17341614px;line-height:125%;font-family:'Droid Sans Georgian';-inkscape-font-specification:'Droid Sans Georgian';text-align:center;letter-spacing:0px;word-spacing:0px;text-anchor:middle;fill:#fcffff;fill-opacity:0.98101262;stroke:none;stroke-width:1px;stroke-linecap:butt;stroke-linejoin:miter;stroke-opacity:1"
       x="455.81909"
       y="494.05746"
       id="text4138"
       sodipodi:linespacing="125%"
       transform="scale(0.80290588,1.245476)"><tspan
         sodipodi:role="line"
         id="tspan4140"
         x="455.81909"
         y="494.05746"
         style="font-style:normal;font-variant:normal;font-weight:normal;font-stretch:normal;font-size:322.14016724px;font-family:'Liberation Mono';-inkscape-font-specification:'Liberation Mono';fill:#fcffff;fill-opacity:0.98101262">NT</tspan></text>
    <flowRoot
       xml:space="preserve"
       id="flowRoot4142"
       style="fill:black;stroke:none;stroke-opacity:1;stroke-width:1px;stroke-linejoin:miter;stroke-linecap:butt;fill-opacity:1;font-family:sans-serif;font-style:normal;font-weight:normal;font-size:40px;line-height:125%;letter-spacing:0px;word-spacing:0px"><flowRegion
         id="flowRegion4144"><rect
           id="rect4146"
           width="897.14288"
           height="1114.2858"
           x="-82.85714"
           y="-47.637794" /></flowRegion><flowPara
         id="flowPara4148" /></flowRoot>    <flowRoot
       xml:space="preserve"
       id="flowRoot4150"
       style="fill:black;stroke:none;stroke-opacity:1;stroke-width:1px;stroke-linejoin:miter;stroke-linecap:butt;fill-opacity:1;font-family:sans-serif;font-style:normal;font-weight:normal;font-size:40px;line-height:125%;letter-spacing:0px;word-spacing:0px"><flowRegion
         id="flowRegion4152"><rect
           id="rect4154"
           width="717.14288"
           height="965.71429"
           x="14.285714"
           y="15.219348" /></flowRegion><flowPara
         id="flowPara4156" /></flowRoot>    <use
       id="use4230"
       xlink:href="#text4138"
       x="0"
       y="0"
       width="100%"
       height="100%"
       transform="matrix(0.21266073,0,0,0.14473866,120.72128,741.72855)" />
    <use
       id="use4234"
       xlink:href="#use4230"
       x="0"
       y="0"
       width="100%"
       height="100%"
       transform="matrix(0.99390961,0,0,1.1102312,420.49092,-507.45289)" />
    <use
       id="use4236"
       xlink:href="#use4230"
       x="0"
       y="0"
       width="100%"
       height="100%"
       transform="matrix(1.1350055,0,0,0.96897057,-113.9822,-90.094682)"
       style="fill:#00ffff" />
    <use
       id="use4238"
       xlink:href="#use4230"
       x="0"
       y="0"
       width="100%"
       height="100%"
       transform="matrix(0.87017435,0,0,0.85317893,436.63436,-2.7674979)" />
    <use
       id="use4244"
       xlink:href="#use4230"
       x="0"
       y="0"
       width="100%"
       height="100%"
       transform="translate(-101.937,-418.11421)" />
    <use
       id="use4246"
       xlink:href="#use4230"
       x="0"
       y="0"
       width="100%"
       height="100%"
       transform="translate(448.38938,-280.31199)" />
    <use
       id="use4248"
       xlink:href="#use4230"
       x="0"
       y="0"
       width="100%"
       height="100%"
       transform="translate(316.21158,-3.2218229)" />
    <use
       id="use4250"
       xlink:href="#use4230"
       x="0"
       y="0"
       width="100%"
       height="100%"
       transform="translate(301.14881,-569.58011)" />
    <use
       id="use4252"
       xlink:href="#use4230"
       x="0"
       y="0"
       width="100%"
       height="100%"
       transform="translate(-127.70609,-272.20084)" />
    <use
       id="use4254"
       xlink:href="#use4230"
       x="0"
       y="0"
       width="100%"
       height="100%"
       transform="translate(152.88136,-635.70903)" />
    <use
       id="use4256"
       xlink:href="#use4230"
       x="0"
       y="0"
       width="100%"
       height="100%"
       transform="translate(-11.622377,-561.51246)" />
    <use
       id="use4258"
       xlink:href="#use4230"
       x="0"
       y="0"
       width="100%"
       height="100%"
       transform="translate(155.26856,58.90884)" />
    <path
       style="fill:#c8beb7;fill-opacity:0.98101262"
       id="path4158"
       d="m 106.28639,282.70009 c 2.28689,3.12387 5.54331,5.24672 8.59631,7.53934 3.27628,1.88099 6.02869,4.53644 9.4296,6.18603 3.4444,1.68105 7.01486,3.08401 10.45643,4.7678 2.93328,1.22026 5.93435,2.22184 8.69216,3.81963 2.52198,1.88398 5.44415,3.08361 8.2058,4.55203 3.34893,2.04399 6.49211,4.4488 9.67542,6.75335 3.79736,3.30011 8.59359,4.67992 13.34075,6.00203 2.46405,1.00317 5.12334,1.32657 7.66794,2.0184 2.67857,0.72824 5.26535,1.87709 7.90008,2.75034 4.78039,1.49875 9.57375,2.79699 14.55308,3.39438 3.96733,0.41356 7.95723,0.35322 11.93916,0.37655 3.48295,-0.0366 6.96585,-0.0275 10.44885,-0.0495 3.40478,0.0109 6.81011,-0.0314 10.21485,-0.002 3.43748,-0.0188 6.87475,0.007 10.31219,-0.005 2.58425,-0.15092 5.26619,0.34862 7.84175,0.0268 0.42274,-0.0528 3.30086,-0.85494 3.68657,-0.9603 3.54889,-1.38577 7.08234,-2.77942 10.51255,-4.43836 7.91236,-4.18479 24.61219,-13.90438 -9.30174,5.58245 3.28703,-1.99025 6.42267,-4.21939 9.56426,-6.42917 2.1457,-1.45454 4.24905,-2.96486 6.34423,-4.49105 0,0 20.59614,-8.46781 20.59614,-8.46781 l 0,0 c -2.1335,1.43492 -4.08019,3.11948 -6.2936,4.43581 -3.07535,2.28963 -6.28087,4.40623 -9.46047,6.54513 -9.61872,5.58728 -19.10877,11.44239 -29.06594,16.42423 -3.49811,1.60006 -7.08153,3.07492 -10.78484,4.12774 -3.94186,0.80731 -7.90083,0.55774 -11.90628,0.62642 -3.43226,-0.013 -6.86435,0.0128 -10.29664,-0.005 -3.40932,0.0301 -6.81915,-0.009 -10.22852,0.0177 -3.46687,-0.005 -6.93347,0.0402 -10.4003,-0.006 -3.97368,-0.025 -7.96028,-0.18108 -11.89923,-0.73151 -4.96304,-0.80199 -9.72874,-2.26337 -14.49239,-3.86198 -5.15828,-1.69145 -10.37383,-3.12648 -15.56695,-4.69361 -4.94281,-1.5343 -10.04201,-2.84332 -14.00933,-6.35448 -3.1743,-2.2299 -6.28419,-4.63509 -9.77236,-6.35252 -2.80597,-1.4115 -5.58281,-2.87009 -8.21359,-4.5932 -2.79192,-1.40411 -5.7593,-2.40497 -8.55705,-3.79867 -3.46744,-1.66642 -6.96961,-3.25839 -10.47819,-4.83607 -3.33478,-1.89273 -6.234996,-4.45202 -9.444899,-6.54812 -3.189784,-2.3783 -6.388056,-4.71713 -9.286885,-7.45287 0,0 19.481084,-11.86798 19.481084,-11.86798 z"
       inkscape:connector-curvature="0" />
    <path
       style="fill:#c8beb7;fill-opacity:0.98101262"
       id="path4160"
       d="m 104.77225,274.83901 c 3.41368,1.44969 5.23943,4.48179 6.59073,7.76251 0,0 -19.542,10.94063 -19.542,10.94063 l 0,0 c -1.071171,-2.84149 -2.631967,-5.38561 -5.913539,-5.79479 0,0 18.864809,-12.90835 18.864809,-12.90835 z"
       inkscape:connector-curvature="0" />
    <path
       style="fill:#c8beb7;fill-opacity:0.98101262"
       id="path4162"
       d="m 113.07063,280.07115 c 1.75274,3.19616 4.41123,5.70641 6.52224,8.64618 1.24983,1.92804 2.63402,3.76095 3.93297,5.65474 0,0 -19.35007,11.33371 -19.35007,11.33371 l 0,0 c -1.26191,-1.90708 -2.66816,-3.71174 -3.87511,-5.65678 -2.006423,-3.00221 -4.52287,-5.63187 -6.908678,-8.33145 0,0 19.678648,-11.6464 19.678648,-11.6464 z"
       inkscape:connector-curvature="0" />
    <path
       style="fill:#c8beb7;fill-opacity:0.98101262"
       id="path4164"
       d="m 252.62564,682.18417 c -0.46204,4.15 1.41615,8.09439 3.0523,11.80219 1.53227,3.92021 3.48841,7.56589 5.98791,10.94618 2.62243,2.4251 4.94298,5.06405 7.10898,7.89627 2.58235,3.34241 5.89742,5.64869 9.43272,7.85573 4.4498,1.95734 8.85605,3.96849 12.80893,6.82015 3.74998,3.30841 7.99012,5.97812 11.63201,9.4066 3.53719,3.18734 7.78382,5.23405 11.88506,7.54555 5.26353,2.418 10.84951,4.21518 16.46918,5.61909 4.65989,0.6895 9.04807,2.41816 13.65955,3.31479 4.94215,0.75797 9.95888,0.82029 14.94867,0.82152 5.06029,-0.008 10.08914,-0.71375 15.13765,-1.02828 4.69352,0.003 9.22343,-1.18872 13.76502,-2.20723 2.40847,-0.58805 4.95404,-0.4073 7.33531,-1.11336 1.04224,-0.30903 2.03677,-0.76081 3.05946,-1.12939 8.26876,-3.19221 24.38149,-13.06884 -8.87783,5.99643 3.10666,-2.02171 6.0829,-4.25689 8.99297,-6.55317 7.75657,-5.99502 17.09625,-10.60483 25.38015,-15.18831 1.23787,-0.68491 2.6773,-0.91662 4.00134,-1.41495 3.52787,-1.59469 6.85609,-3.57443 10.34101,-5.26012 3.30304,-1.43039 6.69159,-2.51844 10.22768,-3.18705 4.32877,-0.41279 8.36583,-2.09932 12.4322,-3.52338 5.24391,-1.41505 10.67221,-1.95687 16.03745,-2.72994 4.18122,-0.69282 8.40324,-0.94515 12.63192,-1.09462 0.57875,-0.0146 1.16394,0.0435 1.73626,-0.0438 1.72874,-0.26365 3.37479,-1.11853 5.09162,-1.46384 0.4469,-0.0899 3.97737,-0.52284 4.35313,-0.56987 4.43782,-0.55917 8.91427,-0.57512 13.37877,-0.64134 4.29779,-0.30197 8.49596,0.33162 12.59014,1.60593 4.49927,0.94418 8.34954,3.33584 12.2074,5.69949 4.20915,2.39347 8.23025,5.06912 11.87217,8.26193 3.60652,2.91361 6.03677,6.89148 8.93071,10.46066 2.4098,2.83844 4.61114,5.8391 7.03405,8.66763 2.34142,3.20247 4.32144,6.55868 5.71068,10.27603 1.09006,3.41314 1.3098,7.03424 1.36521,10.59534 0.22361,3.48204 -0.7022,6.87614 -0.8108,10.33856 0.0247,3.90516 0.40372,7.79686 0.59259,11.69724 0.0338,3.99092 0.1768,7.98156 0.16925,11.97271 0.16158,3.38711 0.0291,6.72626 -0.45595,10.07821 0,0 -20.14948,10.04766 -20.14948,10.04766 l 0,0 c 0.54847,-3.28898 1.01182,-6.53685 0.78584,-9.89023 -0.0287,-3.96776 0.0857,-7.93764 -0.13857,-11.90247 -0.12955,-3.91729 -0.36063,-7.83301 -0.72363,-11.73587 -0.055,-3.47603 0.87096,-6.83213 0.85775,-10.29816 -0.0984,-3.37127 -0.0961,-6.78292 -1.03108,-10.05524 -1.15806,-3.55587 -3.08481,-6.6537 -5.33991,-9.62783 -2.43805,-2.84515 -4.6222,-5.87542 -6.95069,-8.80651 -2.72504,-3.5153 -5.06117,-7.40634 -8.59858,-10.19319 -3.68893,-2.97188 -7.4912,-5.79881 -11.72425,-7.96632 -3.79571,-2.16245 -7.57026,-4.37004 -11.91455,-5.2452 -4.06536,-0.91666 -8.14758,-1.33279 -12.32268,-1.12318 -4.40656,0.0561 -8.82364,0.20842 -13.19179,0.83308 -3.84551,0.6557 -7.56777,2.09096 -11.50643,2.03409 -4.0743,0.13213 -8.14009,0.45464 -12.1766,1.03719 -5.31316,0.7788 -10.72397,1.22108 -15.81751,3.04033 -4.23342,1.48184 -8.45881,2.99925 -12.93238,3.5844 -3.4083,0.82106 -6.71487,2.02939 -9.8744,3.55129 -3.41299,1.74154 -6.75379,3.65538 -10.34402,5.01982 -7.48883,2.90984 -17.02573,9.07956 13.44032,-8.46033 3.30198,-1.90101 -2.40053,1.51776 -3.11748,1.98853 -0.48403,0.31783 -0.94946,0.66313 -1.42419,0.99469 -2.88544,2.42428 -5.97211,4.57421 -8.96885,6.85401 -9.66774,5.58405 -19.10645,12.03378 -29.68839,15.87809 -3.39628,1.05932 -6.90747,1.25869 -10.38467,1.95444 -4.51835,0.93464 -9.0626,1.71055 -13.69162,1.79629 -5.09064,0.37151 -10.17981,1.02912 -15.28929,0.93611 -5.10487,-0.15213 -10.23316,-0.22233 -15.28474,-1.05586 -4.53078,-1.02745 -8.85951,-2.77219 -13.44678,-3.59439 -5.68052,-1.65549 -11.38718,-3.46651 -16.75466,-5.9599 -4.38732,-2.19651 -8.65798,-4.52644 -12.3059,-7.87532 -3.65599,-3.27253 -7.55923,-6.21601 -11.45774,-9.19373 -4.03589,-2.67145 -8.41864,-4.67731 -12.79647,-6.71871 -3.71177,-2.32696 -7.26579,-4.82495 -9.98967,-8.32428 -2.24338,-2.77799 -4.7145,-5.33431 -7.08381,-7.99821 -2.52484,-3.52849 -4.59137,-7.31586 -6.06051,-11.41126 -1.6607,-3.90854 -3.56252,-7.92927 -4.13723,-12.1556 0,0 20.31977,-10.48782 20.31977,-10.48782 z"
       inkscape:connector-curvature="0" />
    <path
       style="fill:#c8beb7;fill-opacity:0.98101262"
       id="path4166"
       d="m 258.66911,263.05842 c 4.49233,-3.26133 8.52434,-7.05167 12.61042,-10.79586 3.60748,-3.27534 7.73834,-5.88573 11.91804,-8.35699 9.57573,-6.0546 19.11537,-12.33596 29.38972,-17.12873 1.63354,-0.58828 3.3564,-0.76934 4.98548,-1.37418 5.65017,-2.09777 27.10068,-15.2776 -14.72089,8.64794 9.06383,-6.75792 18.82484,-11.57064 28.84852,-17.16898 4.57136,-0.96914 9.17792,-1.69901 13.82555,-2.18491 4.17933,-0.47373 8.32913,-1.02819 12.5352,-1.32848 4.25235,-0.26841 8.50833,-0.30836 12.76658,-0.32413 4.69579,-0.3593 8.81383,1.24877 12.96506,3.17375 3.94309,1.76671 7.43951,4.28834 11.07173,6.58193 3.36087,2.05219 6.37358,3.70476 8.83253,6.86001 2.77209,3.65322 4.97976,7.58853 6.47546,11.92081 0.82573,4.06032 1.74354,8.09896 3.30881,11.9445 2.19005,5.03219 5.30374,9.45904 8.78925,13.66298 3.19845,4.15426 7.26971,7.43941 11.22055,10.83021 2.91522,1.92796 5.85802,3.90454 8.94897,5.55212 3.64623,2.15655 6.87247,4.89789 10.43699,7.19245 4.86473,2.89968 10.22016,4.98013 15.52014,6.95779 5.65453,1.87229 11.22879,3.753 16.57013,6.4066 5.23369,2.44484 11.04633,3.02887 16.5225,4.67315 5.14737,1.84686 10.6043,2.12879 15.95353,2.94077 3.76174,0.65739 7.55796,1.03754 11.37061,1.20433 3.76505,-0.36989 7.50893,-0.92974 11.29193,-1.06769 4.36415,-0.56623 8.81833,-0.65308 12.99353,-2.12992 1.49329,-0.52997 1.86583,-0.59588 3.2486,-1.34265 0.49837,-0.26915 1.94462,-1.1622 1.45248,-0.88183 -30.50815,17.38068 -21.36248,12.90685 -14.94247,8.15789 3.16103,-2.13646 6.45198,-4.072 9.71371,-6.04928 48.72158,-28.14352 10.50878,-6.02439 4.28768,-2.58605 -0.73803,0.4079 1.39127,-0.95375 2.07078,-1.45307 1.79102,-1.31607 3.50206,-2.72507 5.31041,-4.01896 3.57644,-2.07627 6.81705,-4.55313 9.87921,-7.32011 2.81846,-2.28181 4.68492,-5.35934 6.74591,-8.27802 2.21199,-2.66907 2.91917,-5.98736 3.92813,-9.20617 0.88149,-3.46394 2.3783,-6.69608 3.61894,-10.03002 1.14746,-2.72322 1.9446,-5.52724 2.48416,-8.42576 0,0 19.972,-9.96654 19.972,-9.96654 l 0,0 c -0.36264,3.01592 -0.96824,5.97414 -2.27702,8.7408 -1.11977,3.39138 -2.7827,6.5481 -3.68516,10.01955 -1.13854,3.28556 -1.39118,6.89205 -3.58401,9.73206 -2.20188,2.95762 -3.93597,6.29225 -6.77229,8.72261 -3.00736,2.83878 -6.0359,5.65249 -9.71862,7.60275 -1.87341,1.1472 -1.84145,1.06061 -3.64604,2.45614 -0.80023,0.61883 -3.10876,2.59712 -3.96967,3.11679 -10.06457,6.07522 -41.26657,24.1063 -4.07297,2.55175 -3.15417,2.02004 -6.3744,3.90403 -9.56724,5.84997 -8.90051,6.17425 -17.89886,12.80556 -28.32824,15.98698 -4.34053,0.98319 -8.81558,1.12543 -13.21529,1.75435 -3.81177,0.35176 -7.62479,0.86234 -11.45362,0.90094 -3.80267,-0.2119 -7.5498,-0.69906 -11.27318,-1.52783 -5.34712,-0.85944 -10.76823,-1.4393 -15.91064,-3.24952 -5.64632,-1.45143 -11.46215,-2.54821 -16.81585,-4.90295 -5.25861,-2.48679 -10.60218,-4.66498 -16.13962,-6.4726 -5.51104,-2.07673 -11.2206,-3.91753 -16.27516,-6.98161 -3.5117,-2.31968 -6.75365,-5.03479 -10.50852,-6.97005 -3.14601,-1.78795 -6.3242,-3.61022 -9.04745,-6.01384 -3.8946,-3.55809 -7.66333,-7.23698 -10.97619,-11.35773 -3.49982,-4.40242 -7.09948,-8.80255 -9.52535,-13.91572 -1.5632,-3.88167 -2.67255,-7.93995 -3.45986,-12.04898 -1.1689,-4.22079 -3.14667,-7.97896 -6.09249,-11.25675 -2.35343,-2.73008 -5.57512,-4.29142 -8.48133,-6.3642 -3.48073,-2.40383 -7.02093,-4.68604 -10.94402,-6.32227 -3.95235,-1.89423 -7.95983,-2.92388 -12.39574,-2.48 -4.20807,0.0356 -8.42236,0.0958 -12.6209,0.39586 -4.20315,0.35587 -8.35066,1.12464 -12.56106,1.40976 -4.59687,0.47184 -9.22199,1.13653 -13.57724,2.74556 33.51179,-19.59076 16.57159,-10.49902 9.63288,-4.81115 -7.41002,4.27746 -14.33644,9.60807 -22.33152,12.65503 -1.58989,0.60592 -3.26978,0.91111 -4.85855,1.516 -0.5301,0.20183 -1.03818,0.45732 -1.55727,0.68598 -13.87774,7.32333 23.36437,-14.45893 12.64389,-7.40844 -0.63226,0.41581 -1.23425,0.87631 -1.86445,1.29522 -0.64739,0.43032 -1.31171,0.83463 -1.96756,1.25195 -4.26403,2.51638 -8.57621,5.00934 -12.43186,8.13757 -3.8439,3.44476 -7.3458,7.32442 -11.61172,10.26245 0,0 -20.95895,9.00467 -20.95895,9.00467 z"
       inkscape:connector-curvature="0" />
    <path
       style="fill:#c8beb7;fill-opacity:0.98101262"
       id="path4168"
       d="m 490.09378,672.68772 c 3.3117,-2.16486 6.64991,-4.27622 9.88495,-6.55856 4.28263,-2.94821 8.30538,-6.27215 12.00004,-9.92841 2.88935,-3.37348 5.85128,-6.68756 8.28495,-10.41217 2.23156,-3.61672 3.81696,-7.51098 4.71493,-11.6541 0.70076,-3.7905 0.77503,-7.65122 0.79142,-11.49393 0.0786,-4.34664 -0.17364,-8.71446 0.4487,-13.02658 0.76982,-3.34927 1.53555,-6.68 1.88344,-10.10262 0.48421,-3.68313 -0.66614,-7.24521 -1.43666,-10.81413 -0.61917,-4.56732 -3.16427,-8.2126 -5.46012,-12.05129 -2.24863,-4.5691 -5.1771,-8.77299 -7.37451,-13.35631 -2.14234,-4.35666 -4.11768,-8.74121 -5.08558,-13.51136 -0.82993,-4.13049 -2.55713,-7.98194 -3.68087,-12.03307 -1.18633,-3.73588 -1.80108,-7.58194 -2.48893,-11.42388 -0.80187,-4.1356 -1.11353,-8.32233 -1.31219,-12.52064 -0.65618,-4.66107 -1.72908,-9.23113 -2.34197,-13.90576 -0.45206,-3.85388 -0.75102,-7.75116 -0.51012,-11.62817 0.12559,-3.7556 1.4215,-6.95443 3.72961,-9.85601 2.97935,-3.10546 6.77014,-5.33695 10.45197,-7.51446 10.22082,-5.34368 19.93379,-12.58672 30.96419,-16.5055 3.92711,-1.42848 8.04555,-1.50422 12.16708,-1.52955 5.13407,-0.17349 10.24847,-0.74728 15.37934,-1.0825 3.87955,-0.26641 7.76567,-0.40109 11.65332,-0.46019 3.56168,-0.36415 6.60722,0.66159 9.63188,2.44411 3.60911,2.07462 7.1073,4.32692 10.6647,6.49656 4.29776,1.91119 8.31525,4.36102 12.49998,6.48643 5.41567,2.27091 10.90901,4.44878 16.45209,6.41516 4.75477,1.70612 9.72526,2.47243 14.74088,2.81268 3.69063,0.24487 7.37296,-0.85919 10.79612,-2.16158 2.88535,-1.21885 5.92106,-2.12947 8.65106,-3.68358 -33.88078,17.65951 -21.0545,13.14543 -15.10585,8.30299 1.8788,-1.52941 3.4883,-3.31734 5.14607,-5.07521 3.00976,-3.16448 5.16183,-6.86711 6.82675,-10.86735 1.44642,-3.18329 1.88488,-6.61168 2.20176,-10.05218 -0.0927,-3.82484 1.14094,-7.36675 2.5957,-10.84044 1.66567,-3.26734 3.15925,-6.62593 4.40903,-10.07413 0.84752,-3.14353 2.43894,-5.94919 4.10461,-8.71415 0,0 20.2452,-9.19733 20.2452,-9.19733 l 0,0 c -1.65956,2.58537 -3.3009,5.23848 -4.18923,8.20325 -0.99542,3.59536 -2.72649,6.95255 -4.34054,10.30431 -1.56896,3.19877 -2.96387,6.5394 -2.86876,10.17139 -0.15907,3.63005 -0.62239,7.30344 -1.99488,10.69372 -1.79333,4.19376 -3.66883,8.25707 -6.85774,11.62951 -1.52368,1.71458 -2.98898,3.57289 -4.61863,5.18826 -5.89191,5.84032 -23.14707,11.15884 -23.32317,14.11643 -2.8577,1.27337 -5.80257,2.37471 -8.75976,3.39193 -3.64162,1.03668 -7.34623,1.96821 -11.16247,1.40927 -4.95365,-0.5545 -9.79365,-1.81369 -14.43395,-3.64108 -5.69194,-2.13103 -11.55746,-3.81015 -17.09394,-6.31867 -4.137,-2.2871 -8.29074,-4.5208 -12.53798,-6.59499 -3.58449,-2.14787 -7.17804,-4.28091 -10.8615,-6.25532 -2.94266,-1.43624 -5.88005,-1.79644 -9.14367,-1.54379 -3.72151,0.01 -7.44429,0.0433 -11.16146,0.24093 -5.14895,0.31249 -10.27234,0.99383 -15.43537,1.0579 -4.06389,0.26563 -8.13334,0.64431 -11.94895,2.18822 -8.31998,3.46554 -26.53926,13.67436 7.23842,-5.22561 -3.58682,2.09654 -7.19189,4.16731 -10.42686,6.79886 -2.40524,2.52699 -4.24051,5.10047 -4.37022,8.74364 -0.37801,3.78067 -0.0621,7.58835 0.155,11.37264 0.47295,4.73006 1.43418,9.37268 2.43517,14.01623 0.16902,4.08634 0.47961,8.18361 1.33739,12.1909 0.7309,3.79127 1.0571,7.67052 2.33265,11.34613 1.00908,4.14034 2.87454,7.98733 3.66005,12.18382 0.87512,4.6277 2.53315,8.96252 4.65792,13.16598 2.20703,4.52113 5.10021,8.66272 7.43607,13.12114 2.37829,3.99684 5.10249,7.81225 5.78024,12.54674 1.0191,3.65839 2.30269,7.44859 2.00438,11.28235 -0.32009,3.52291 -0.84197,6.9913 -1.97782,10.35862 -1.01447,4.19064 -0.58964,8.41858 -0.60161,12.69493 -0.0338,3.94563 0.0913,7.93098 -0.57093,11.83456 -0.89227,4.34864 -2.38307,8.40769 -4.47938,12.32977 -2.37604,3.88894 -5.40113,7.27718 -8.21556,10.84567 -3.61735,3.78944 -7.70619,7.11963 -11.87462,10.28275 -3.05174,2.07873 -5.955,4.38507 -9.18795,6.18935 0,0 -21.12331,8.75747 -21.12331,8.75747 z"
       inkscape:connector-curvature="0" />
    <path
       style="fill:#c8beb7;fill-opacity:0.98101262"
       id="path4170"
       d="m 70.801567,458.14099 c 6.73297,1.83367 13.644246,2.85651 20.567599,3.63198 5.933833,0.6376 11.904804,0.65425 17.864384,0.72285 4.73909,0.0929 9.49539,-0.3441 14.2189,0.11166 3.47823,0.4515 6.96528,0.79952 10.46902,0.96113 3.59341,0.79972 7.27803,0.96359 10.89347,1.58994 2.82554,0.93867 5.83201,1.19141 8.70108,1.9131 1.5534,0.39075 3.05162,0.97528 4.58405,1.44153 4.7627,1.35973 8.97446,3.88163 13.22928,6.31858 3.96375,1.90185 7.43037,4.38667 10.3215,7.68601 2.9484,3.62638 3.37247,8.31212 4.67144,12.64749 2.00413,5.57884 3.02477,11.39818 4.22122,17.1799 1.14244,4.73293 2.21048,9.44603 2.74718,14.29419 0.16724,3.78997 -0.57461,7.45825 -2.03368,10.93739 -2.21141,4.29562 -4.82101,8.35992 -7.62684,12.28699 -8.16031,9.5309 -19.77862,14.35611 -30.5261,20.5687 -3.43755,1.63841 -7.26172,2.01872 -11.01988,2.13453 -3.49658,0.0913 -6.99439,0.0467 -10.49112,-0.007 -3.87952,-0.06 -7.76013,-0.0375 -11.64004,-0.0297 -3.30088,-0.17185 -6.44564,0.22623 -9.39611,1.73981 -2.84331,1.8792 -6.19761,2.96065 -9.46047,3.88161 -4.389242,1.34936 -8.490735,3.40069 -12.988725,4.44196 -3.639278,0.82852 -7.028929,2.25527 -10.284656,4.0542 33.252591,-18.83437 16.572688,-12.11596 11.837168,-3.95405 -1.358928,2.8243 -2.907443,5.55578 -4.175069,8.42299 -1.248433,2.90922 -2.263369,5.889 -3.64482,8.74076 -2.159601,3.86195 -4.083455,7.85482 -5.670363,11.98502 -1.605153,4.56724 -3.327759,9.09227 -4.949953,13.65307 -1.218132,4.06794 -2.700369,8.04457 -4.188706,12.01873 -1.302344,3.90597 -2.531849,7.83965 -3.683725,11.793 -0.625284,3.91123 -2.524827,7.10883 -4.904351,10.19668 -8.128232,7.7038 -18.124518,14.49095 -29.19673,16.74719 0,0 17.950326,-13.35261 17.950326,-13.35261 l 0,0 c 7.632116,-2.22918 15.788059,-8.44858 -14.047445,9.02869 -0.562915,0.32975 1.141641,-0.63458 1.684815,-0.99592 0.574785,-0.38237 1.11663,-0.81233 1.664588,-1.23224 0.558597,-0.42807 1.103084,-0.87424 1.654627,-1.31136 2.521407,-2.62848 4.393223,-5.72618 5.073348,-9.34696 1.206188,-4.01202 2.701441,-7.93112 3.751818,-11.99317 1.539374,-3.99207 2.980665,-8.01546 4.367716,-12.06318 1.641891,-4.53138 3.271863,-9.0657 4.860931,-13.61286 1.409629,-4.17514 3.346429,-8.1784 5.341164,-12.10152 1.457016,-2.75139 2.34461,-5.68749 3.579465,-8.53324 1.138519,-2.98993 2.797933,-5.72139 4.164615,-8.60767 4.699757,-10.30021 17.238813,-14.15624 26.241293,-19.23492 3.331078,-1.56205 6.758489,-2.7781 10.361019,-3.5673 4.44863,-1.30139 8.65247,-3.24305 13.07029,-4.63667 3.24775,-1.15756 6.43098,-2.40142 9.45085,-4.08164 3.1728,-1.02142 6.42103,-1.18093 9.74073,-1.01205 3.88074,0.0174 7.76148,0.0571 11.64222,0.0384 3.48624,-0.0151 6.97582,0.0419 10.45897,-0.13085 3.58912,-0.31916 7.14566,-0.85315 10.30472,-2.72682 -34.93885,20.34181 -18.42216,11.39169 -12.88888,7.30379 2.12105,-1.56699 3.98907,-3.4909 5.91172,-5.28283 2.81302,-3.6992 5.27019,-7.58927 7.35735,-11.74613 1.6863,-3.11395 2.57846,-6.50365 2.63388,-10.05816 -0.23678,-4.85843 -1.01236,-9.58305 -2.35705,-14.26395 -0.96528,-5.75306 -1.88864,-11.55216 -3.86449,-17.06468 -1.46136,-3.9302 -2.53511,-8.1285 -4.78423,-11.68168 -2.7292,-3.13228 -6.23231,-5.34959 -9.93529,-7.19267 -4.02961,-2.54129 -8.18707,-4.79028 -12.84704,-5.97155 -4.32895,-1.26841 -8.77391,-2.1147 -13.18323,-3.04853 -3.68613,-0.36184 -7.35837,-0.79162 -11.02448,-1.30555 -3.4593,-0.22349 -6.88293,-0.68345 -10.32111,-1.11573 -4.60449,-0.25158 -9.224109,-0.0562 -13.832898,-0.22658 -5.949746,-0.0658 -11.905946,-0.28852 -17.813466,-1.04241 -7.058153,-1.06135 -14.082878,-2.84364 -21.24524,-2.83985 0,0 18.433441,-13.09996 18.433441,-13.09996 z"
       inkscape:connector-curvature="0" />
    <path
       style="fill:#c8beb7;fill-opacity:0.98101262"
       id="path4172"
       d="m 116.98827,760.80756 c 3.69151,0.16471 7.39455,0.36915 11.07465,-0.0128 4.02817,-1.13173 8.13504,-1.83412 12.23004,-2.66507 4.19391,-0.53795 8.34938,-1.25444 12.51877,-1.9493 3.64942,-0.82413 7.48483,-1.01479 11.04101,-2.17511 3.8043,-1.30918 7.71558,-2.2814 11.65108,-3.10224 4.92368,-0.503 9.73366,-1.69558 14.602,-2.53666 4.60074,-0.68066 9.24881,-1.00153 13.89734,-1.03594 4.01732,-0.0776 8.03498,-0.065 12.0527,-0.0871 3.52691,-0.22202 6.98822,0.51684 10.47387,0.9256 3.75686,0.82113 7.33839,2.47616 10.67673,4.36389 3.11347,1.65055 6.13457,3.51269 9.00689,5.557 3.37517,2.21057 5.13408,5.71634 7.10742,9.08733 2.37022,4.22559 4.44151,8.60958 6.54803,12.97028 1.8322,5.26542 2.90041,10.74641 4.69674,16.02158 1.58311,4.8749 3.98887,9.41455 5.70984,14.23347 0.92297,4.23812 1.2177,8.56193 2.48804,12.72039 1.14153,3.69603 2.57227,7.31574 3.40458,11.09879 0.65488,3.44533 1.31737,6.89215 2.17836,10.29288 0.52402,3.23302 2.10171,6.02887 3.75085,8.79895 1.57999,2.76871 3.52073,5.16698 5.75521,7.4206 2.47573,2.15609 4.10956,5.01535 6.02545,7.63519 1.62462,2.83309 3.77032,5.15967 6.11462,7.39518 2.07785,2.49434 4.38774,4.71032 6.80026,6.87276 2.83598,2.89744 4.15687,4.55283 3.11873,8.67647 -0.65532,1.79404 -1.83802,2.95465 -3.24681,4.15693 0,0 -20.74065,8.46245 -20.74065,8.46245 l 0,0 c 1.52099,-0.72775 2.77664,-1.46763 3.70464,-2.94361 1.56304,-2.90278 0.22397,-4.44235 -1.93555,-6.57558 -2.44858,-2.151 -4.70151,-4.466 -6.83441,-6.93172 -2.43171,-2.29917 -4.57829,-4.80242 -6.29564,-7.69165 -1.89893,-2.51409 -3.47761,-5.30206 -5.8963,-7.37308 -2.36237,-2.36139 -4.27683,-4.99028 -5.99026,-7.8576 -1.75101,-2.92688 -3.48665,-5.91508 -3.99319,-9.34565 -0.83201,-3.42985 -1.65043,-6.8709 -2.17734,-10.36268 -0.79443,-3.75355 -2.06699,-7.36728 -3.1695,-11.03755 -1.25755,-4.1379 -1.76946,-8.4103 -2.57674,-12.64607 -1.36311,-4.93797 -3.43704,-9.63673 -5.27384,-14.40988 -1.84103,-5.16616 -2.8846,-10.5814 -4.80942,-15.71776 -2.00535,-4.33375 -4.12281,-8.60971 -6.4533,-12.78061 -1.93322,-3.03622 -3.91592,-6.1676 -6.96147,-8.20393 -2.85307,-1.93428 -5.76302,-3.79792 -8.79875,-5.43397 -3.23649,-1.70485 -6.65413,-3.22148 -10.31578,-3.67925 -3.43199,-0.40726 -6.84126,-0.95996 -10.31437,-0.75339 -3.95026,-0.0375 -7.90173,-0.0536 -11.85168,0.01 -4.54751,0.19106 -9.10973,0.34832 -13.59612,1.1926 -4.92069,0.91815 -9.83315,1.87683 -14.76264,2.74733 -3.90504,0.89233 -7.74488,2.02597 -11.58124,3.17421 -3.71099,0.82103 -7.47484,1.43749 -11.2246,2.05575 -4.10836,0.66047 -8.23725,1.16471 -12.33054,1.90815 -4.12213,0.84775 -8.21553,1.88574 -12.38472,2.462 -3.91567,0.17338 -7.83771,0.0996 -11.752305,0.31492 0,0 18.639315,-13.24627 18.639315,-13.24627 z"
       inkscape:connector-curvature="0" />
  </g>
</svg>
